<?xml version="1.0" encoding="utf-8"?>
<!-- Generator: Adobe Illustrator 17.0.0, SVG Export Plug-In . SVG Version: 6.00 Build 0)  -->
<!DOCTYPE svg PUBLIC "-//W3C//DTD SVG 1.1//EN" "http://www.w3.org/Graphics/SVG/1.1/DTD/svg11.dtd">
<svg version="1.1" id="Isolation_Mode" xmlns="http://www.w3.org/2000/svg" xmlns:xlink="http://www.w3.org/1999/xlink" x="0px"
	 y="0px" width="1829.634px" height="1553.689px" viewBox="0 0 1829.634 1553.689" enable-background="new 0 0 1829.634 1553.689"
	 xml:space="preserve">
<path fill="#FF1041" d="M1415.214,771.247c0,0,189.536,165.266,105.876,241.742c-83.66,76.476-89.355-17.041-148.392,33.83
	c-59.038,50.872-95.993,3.269-100.215,74.781c-4.221,71.512-235.643-35.4-235.643-35.4l22.641-497.325L1415.214,771.247z"/>
<path fill="#B21231" d="M1521.09,1013.151c-83.66,76.48-89.35-17.04-148.39,33.83c-59.04,50.88-96,3.27-100.22,74.79
	c-4.22,71.51-235.64-35.4-235.64-35.4l0.58-12.8c51.2,22.17,217.19,89.25,220.77,28.79c4.22-71.51,41.17-23.91,100.21-74.78
	c59.04-50.87,64.73,42.65,148.39-33.83c39.89-36.46,17.67-93.11-16.5-142.41C1531.669,904.461,1566.34,971.791,1521.09,1013.151z"/>
<path fill="none" stroke="#03174F" stroke-width="18" stroke-linecap="round" stroke-linejoin="round" stroke-miterlimit="10" d="
	M1415.214,771.247c0,0,189.536,165.266,105.876,241.742c-83.66,76.476-89.355-17.041-148.392,33.83
	c-59.038,50.872-95.993,3.269-100.215,74.781c-4.221,71.512-235.643-35.4-235.643-35.4l22.641-497.325L1415.214,771.247z"/>
<g>
	<path fill="#01DC82" d="M1255.524,901.429c-17.867-117.66-194.153-215.298-194.153-215.298
		c-5.532,165.147,1.786,249.481,21.952,253.003c12.45,2.174,29.797-26.451,52.041-85.879c-8.69,29.322-24.642,92.589-2.769,164.81
		c13.784,45.512,33.635,76.265,33.635,76.265c91.18,92.926,41.84-92.135,41.84-92.135
		C1244.832,973.979,1261.734,940.668,1255.524,901.429z"/>
	<path fill="#05AF4A" d="M1201.355,1002.192c0,0,37.96,142.38-14.24,114.66c19.11-19.76-6.19-114.66-6.19-114.66
		c36.76-28.21,53.67-61.52,47.46-100.76c-14.14-93.07-127.4-173.62-174.12-203.21c0.12-3.98,0.25-8.01,0.39-12.09
		c0,0,176.28,97.64,194.15,215.3C1255.015,940.671,1238.115,973.981,1201.355,1002.192z"/>
	<g>
		<g>
			<path fill="#03174F" d="M1065.731,678.258c2.061,1.154,3.916,2.236,5.84,3.37l5.676,3.405c3.764,2.288,7.488,4.621,11.19,6.986
				c7.402,4.733,14.699,9.611,21.903,14.626c14.408,10.029,28.441,20.609,42.015,31.802c13.571,11.193,26.668,23.022,39.086,35.616
				c12.409,12.595,24.132,25.985,34.665,40.419c10.503,14.434,19.909,29.9,27.012,46.66c3.544,8.374,6.514,17.053,8.713,25.986
				c0.58,2.223,0.999,4.496,1.502,6.743c0.414,2.266,0.812,4.516,1.173,6.805c0.717,4.59,1.135,9.338,1.238,14.066
				c0.216,9.475-0.901,19.075-3.431,28.285c-2.51,9.217-6.41,18.005-11.302,26.039c-4.893,8.04-10.679,15.411-17.048,22.058
				c-3.181,3.329-6.485,6.513-9.897,9.542c-3.421,3.018-6.934,5.899-10.517,8.669l3.216-9.458l0.001,0.002
				c1.093,3.692,2.062,7.208,3.005,10.823c0.942,3.593,1.847,7.192,2.718,10.803c1.72,7.226,3.269,14.501,4.665,21.839
				c1.406,7.337,2.583,14.747,3.476,22.271c0.886,7.529,1.535,15.152,1.568,23.059c0.015,3.956-0.127,7.984-0.622,12.163
				c-0.504,4.181-1.267,8.514-2.984,13.206c-0.86,2.335-2.026,4.8-3.713,7.285c-0.864,1.245-1.875,2.489-3.057,3.679
				c-1.205,1.189-2.595,2.309-4.141,3.27c-3.105,1.939-6.821,3.037-10.151,3.27c-3.36,0.257-6.358-0.161-8.976-0.806
				c-5.259-1.325-9.33-3.429-13.092-5.607c-3.722-2.204-7.04-4.625-10.181-7.109c-6.279-4.976-11.853-10.273-17.215-15.683
				l-0.069-0.07c-0.52-0.525-0.997-1.139-1.377-1.738l-1.197-1.915l-1.087-1.799l-2.088-3.573c-1.365-2.381-2.682-4.767-3.966-7.166
				c-2.568-4.797-5.01-9.638-7.336-14.531c-4.63-9.794-8.785-19.792-12.519-29.955c-7.411-20.338-13.055-41.4-16.306-62.946
				c-3.288-21.526-4.087-43.565-1.849-65.402c0.572-5.457,1.409-10.889,2.557-16.26c1.222-5.356,2.597-10.676,4.467-15.846
				c0.437-1.299,0.889-2.592,1.417-3.863c0.511-1.275,0.998-2.554,1.529-3.817c1.129-2.508,2.211-5.017,3.5-7.444l1.933-3.627
				c0.708-1.182,1.383-2.371,2.115-3.534c1.387-2.354,3.044-4.584,4.689-6.786c1.064-1.425,3.082-1.717,4.507-0.653
				c0.947,0.707,1.394,1.836,1.275,2.932l-0.011,0.093c-1.19,10.662-2.912,20.692-4.135,30.752
				c-1.308,10.024-2.347,19.961-3.184,29.931c-1.567,19.961-0.296,40.151,3.04,60.034c3.405,19.881,8.83,39.491,15.946,58.5
				c3.536,9.512,7.501,18.877,11.849,28.04c2.154,4.591,4.414,9.127,6.774,13.589c1.179,2.23,2.385,4.441,3.618,6.616l1.864,3.228
				l0.939,1.572l0.878,1.425l-1.445-1.807c4.882,4.983,9.905,9.771,15.055,13.886c2.566,2.066,5.177,3.926,7.701,5.504
				c2.5,1.542,5.028,2.75,6.858,3.228c0.462,0.135,0.838,0.189,1.173,0.251c0.296,0.02,0.566,0.06,0.695,0.042
				c0.308-0.016,0.183-0.004,0.195,0.031c0,0,0.053-0.017,0.158-0.1c0.104-0.105,0.262-0.268,0.45-0.515
				c0.373-0.529,0.85-1.353,1.264-2.436c0.853-2.15,1.505-5.033,1.911-8.086c0.407-3.066,0.632-6.34,0.725-9.681
				c0.179-6.695-0.183-13.661-0.796-20.649c-0.628-6.996-1.526-14.044-2.539-21.103c-1.026-7.059-2.25-14.12-3.574-21.171
				c-0.652-3.528-1.339-7.052-2.06-10.567c-0.725-3.491-1.478-7.069-2.235-10.438l0-0.002l-0.006-0.024
				c-0.951-3.611,0.439-7.291,3.223-9.434c13.096-10.059,24.804-21.758,33.023-35.313c4.115-6.758,7.296-13.97,9.339-21.473
				c2.056-7.5,2.97-15.284,2.795-23.125c-0.089-3.931-0.422-7.832-1.044-11.801c-0.316-1.988-0.672-4.005-1.033-5.999
				c-0.45-1.978-0.807-3.971-1.324-5.938c-1.944-7.89-4.592-15.654-7.798-23.232c-6.421-15.168-15.113-29.524-24.982-43.081
				c-9.894-13.563-21.048-26.323-32.952-38.402c-11.91-12.08-24.558-23.509-37.715-34.36
				c-13.159-10.852-26.814-21.148-40.843-30.913c-7.014-4.882-14.122-9.634-21.316-14.234c-3.597-2.298-7.214-4.564-10.852-6.776
				l-5.467-3.279c-1.806-1.066-3.695-2.163-5.412-3.126l-0.078-0.044c-4.336-2.43-5.881-7.915-3.451-12.251
				C1055.911,677.373,1061.395,675.827,1065.731,678.258z"/>
		</g>
	</g>
</g>
<g>
	<path fill="#01DC82" d="M672.359,661.047c0,0-101.321,35.898-130.007,113.407c-28.685,77.509-208.805-21.697-186.114-139.741
		c0,0-124.989-14.711-182.072,16.549c-55.506,30.397,108.739,92.519,108.739,92.519S421.5,1023.511,603.52,865.793
		C785.541,708.074,747.893,641.78,747.893,641.78L672.359,661.047"/>
	<path fill="#05AF4A" d="M747.473,693.341c-13.44,36.3-49.59,92.2-140.31,170.8c-182.02,157.72-320.61-122.01-320.61-122.01
		s-160.17-60.59-110.72-91.37c11.78,31.61,119.14,72.22,119.14,72.22s138.6,279.73,320.62,122.01
		C691.653,779.091,729.353,729.151,747.473,693.341z"/>
	<path fill="#ACF9CD" d="M516.026,805.799c-40.45,57.83-202.5-37.44-180.91-149.77c0,0-116.67-13.73-176.04,13.53
		c1.45-3.74,4.85-7.23,10.6-10.38c57.08-31.26,182.07-16.55,182.07-16.55C332.446,743.029,459.856,829.799,516.026,805.799z"/>
	<path fill="none" stroke="#03174F" stroke-width="18" stroke-linecap="round" stroke-linejoin="round" stroke-miterlimit="10" d="
		M672.359,661.047c0,0-101.321,35.898-130.007,113.407c-28.685,77.509-208.805-21.697-186.114-139.741
		c0,0-124.989-14.711-182.072,16.549c-55.506,30.397,108.739,92.519,108.739,92.519S421.5,1023.511,603.52,865.793
		C785.541,708.074,747.893,641.78,747.893,641.78L672.359,661.047"/>
</g>
<path fill="#01DC82" d="M696.181,1330.927c-90.026-158.674-226.812-491.369-117.711-921.213
	c-20.459-8.124-49.639-16.541-84.92-16.653c-82.588-0.261-140.673,45.178-160.297,62.115c0,0,124.905-432.205,589.128-409.311
	c0,0,357.692,2.124,466.232,419.59c-20.696-16.925-71.1-53.406-144.453-61.464c-56.2-6.174-100.948,7.074-124.905,16.22
	c0,0-101.975,443.71,73.645,763.185c93.337,169.792-47.581,374.132-233.962,338.654c-2.968-0.565-5.953-1.171-8.956-1.819
	C843.241,1497.179,751.178,1427.861,696.181,1330.927z"/>
<path fill="#05AF4A" d="M1191.043,1178.141c93.34,169.79-47.58,374.13-233.96,338.65c-2.97-0.56-5.96-1.17-8.96-1.81
	c-17.4-3.76-34.41-8.75-50.94-14.9c6.71,1.8,13.48,3.42,20.32,4.85c3.01,0.63,5.99,1.22,8.96,1.77
	c186.28,34.31,327.57-165.72,234.58-331.52c-174.97-311.96-71.626-751.29-71.626-751.29c7.27-2.73,24.234-9.936,35.064-12.766
	C1113.441,463.565,1027.024,879.781,1191.043,1178.141z"/>
<path fill="#05AF4A" d="M1380.23,463.775c-8.57-7.02-22.25-17.39-40.55-27.7c-119.85-367.51-453.41-368.8-453.41-368.8
	c-159.52-7.38-279.06,37.72-367.26,100.1C609.24,92.925,736.94,35.455,914,44.185C914,44.185,1271.69,46.305,1380.23,463.775z"/>
<path fill="#ACF9CD" d="M1187.823,1418.91c-45.39,74.11-130.85,121.8-228.89,103.14c-2.97-0.56-5.95-1.17-8.96-1.82
	c-106.74-23.05-198.8-92.37-253.8-189.3c-90.02-158.67-226.81-491.37-117.71-921.21c-20.46-8.13-49.64-16.55-84.92-16.66
	c-82.59-0.26-140.67,45.18-160.29,62.12c0,0,30.1-104.16,115.66-207.5c-63.13,89.19-86.18,168.97-86.18,168.97
	c19.62-16.94,77.71-62.38,160.3-62.11c35.28,0.11,64.46,8.53,84.92,16.65c-109.1,429.84,27.68,762.54,117.71,921.21
	c54.99,96.94,147.06,166.25,253.8,189.31c3,0.64,5.99,1.25,8.95,1.81C1068.123,1498.69,1139.523,1470.01,1187.823,1418.91z"/>
<path fill="none" stroke="#03174F" stroke-width="18" stroke-linecap="round" stroke-linejoin="round" stroke-miterlimit="10" d="
	M696.181,1330.927c-90.026-158.674-226.812-491.369-117.711-921.213c-20.459-8.124-49.639-16.541-84.92-16.653
	c-82.588-0.261-140.673,45.178-160.297,62.115c0,0,124.905-432.205,589.128-409.311c0,0,357.692,2.124,466.232,419.59
	c-20.696-16.925-71.1-53.406-144.453-61.464c-56.2-6.174-100.948,7.074-124.905,16.22c0,0-101.975,443.71,73.645,763.185
	c93.337,169.792-47.581,374.132-233.962,338.654c-2.968-0.565-5.953-1.171-8.956-1.819
	C843.241,1497.179,751.178,1427.861,696.181,1330.927z"/>
<g>
	<path fill="#FF1041" d="M844.591,615.886c35.292-15.016,88.341-33.589,154.48-41.191c84.287-9.688,115.938,6.935,206.295,14.656
		c205.602,17.57,297.607-46.632,382.712,15.208c26.481,19.242,55.019,45.464,66.554,83.227
		c11.932,39.064-6.26,66.216,32.796,104.825c61.423,60.719,101.023,179.237,101.023,179.237s-331.1,51.993-535.099-129.155
		c-10.747-5.979-65.745-86.029-162.964-144.531c-41.184-24.783-71.201-35.44-103.153-38.382
		c-62.821-5.785-112.471,20.157-135.809,34.682L844.591,615.886z"/>
	<path fill="#A8072D" d="M1795.936,971.303c0,0-331.1,51.99-535.1-129.16c-10.75-5.98-65.75-86.03-162.97-144.53
		c-41.18-24.78-71.2-35.44-103.15-38.38c-62.82-5.78-112.47,20.16-135.81,34.68l-2.46-28.26c26.72-14.77,73.7-34.78,131.34-29.81
		c33.02,2.85,64.01,13.43,106.51,38.09c100.32,58.24,156.94,138.15,168.03,144.09c174.51,149.85,439.95,138.9,525.29,130.82
		C1793.047,962.663,1795.936,971.303,1795.936,971.303z"/>
	<path fill="#F993BC" d="M1788.451,980.246c0,0-8.14,1.28-22.65,2.73c-12.71-33.57-47.49-116.92-95.73-164.61
		c-39.06-38.61-20.87-65.76-32.8-104.82c-11.53-37.77-40.07-63.99-66.55-83.23c-85.11-61.84-177.11,2.36-382.71-15.21
		c-90.36-7.72-122.01-24.34-206.3-14.65c-55.59,6.39-101.93,20.53-136.25,33.79l-0.87-9.97c35.29-15.01,88.34-33.58,154.48-41.19
		c84.29-9.68,115.94,6.94,206.3,14.66c205.6,17.57,297.6-46.63,382.71,15.21c26.48,19.24,55.02,45.46,66.55,83.22
		c11.94,39.07-6.26,66.22,32.8,104.83C1748.851,861.726,1788.451,980.246,1788.451,980.246z"/>
	<g>
		<g>
			<path fill="#FF1041" d="M549.86,548.406l5.208-34.055c0,0-105.664,19.828-66.908,73.131
				c8.944,12.301,25.579,26.384,52.978,42.418"/>
			<path fill="#FF1041" d="M496.515,597.201c0,0-66.493,76.483,42.235,73.828c108.727-2.655,211.335-29.685,313.828,36.673
				l16.762-73.873c-74.001-29.352-136.45-42.019-181.45-48.055c-76.096-10.207-152.349-8.167-154.07-22.947
				c-0.603-5.177,8.157-10.554,16.04-14.421"/>
		</g>
	</g>
	<g>
		<g>
			<path fill="#A8072D" d="M860.241,687.014l-4.43,19.52c-102.5-66.35-205.1-39.32-313.83-36.67
				c-56.96,1.39-65.83-18.94-61.37-38.61c3.64,13.89,19.95,24.9,63.48,23.79C653.591,652.254,757.111,625.934,860.241,687.014z"/>
		</g>
	</g>
	<g>
		<g>
			<path fill="#F993BC" d="M525.291,565.878c0.01,0.07,0.02,0.15,0.03,0.22c0.6,3.51,5.47,6.06,13.58,8.05l-0.89,8.32
				c-6.38-0.82-11.93-1.76-16.47-2.87c-3.22-0.79-5.93-1.67-8.06-2.66c-3.24-1.5-5.16-3.27-5.52-5.39
				c-0.01-0.07-0.02-0.15-0.03-0.22c-0.6-5.17,8.16-10.55,16.04-14.42l5.21-34.05c0,0-4.62,0.87-11.58,2.72
				c15.52-5.65,28.94-8.17,28.94-8.17l-5.21,34.05C533.451,555.328,524.691,560.708,525.291,565.878z"/>
			<path fill="#F993BC" d="M853.445,643.036l-16.76,73.87c-4.73-3.06-9.45-5.92-14.18-8.59l13.58-59.83
				c-74-29.36-136.45-42.02-181.45-48.06c-47.21-6.34-94.5-7.95-123.99-11.81c-6.38-0.82-11.93-1.76-16.47-2.87
				c-3.22-0.79-5.93-1.67-8.06-2.66l11.84-10.84c0.6,3.51,5.47,6.06,13.58,8.05c25.5,6.25,83.03,6.97,140.46,14.68
				C716.995,601.016,779.445,613.676,853.445,643.036z"/>
		</g>
	</g>
	<path fill="#FF1041" d="M807.084,653.021c0,0-80.648,17.61-90.582,124.829c-9.934,107.218-64.255,132.244-64.255,132.244
		s110.913-43.461,133.074-138.231s36.189-108.819,36.189-108.819L807.084,653.021z"/>
	<path fill="#F45690" d="M821.51,669.293c-7.63,1.95-80.52,23.09-89.94,124.68c-4.7,50.84-19.4,83.2-33.54,103.17
		c-22.67,14.53-40.67,21.73-41.57,22.08c1.65-0.78,54.44-26.69,64.21-132.23c9.93-107.22,90.58-124.83,90.58-124.83L821.51,669.293z
		"/>
	<path fill="#FF1041" d="M852.113,666.277c0,0,82.477,3.42,110.776,107.312c28.299,103.893,86.126,119.162,86.126,119.162
		s-116.752-23.656-154.944-113.176S839.635,678.64,839.635,678.64L852.113,666.277z"/>
	<path fill="#F45690" d="M1058.866,894.777c-3.55-0.74-117.27-25.03-154.86-113.15c-38.2-89.52-54.44-100.94-54.44-100.94l7.7-7.63
		c0.86,0.65,17.24,13.84,54.4,100.91c23.75,55.66,77.86,85.86,115.4,100.74C1044.005,890.336,1057.686,894.437,1058.866,894.777z"/>
	<path fill="none" stroke="#03174F" stroke-width="18" stroke-linecap="round" stroke-linejoin="round" stroke-miterlimit="10" d="
		M845.002,620.619c35.292-15.016,88.341-33.589,154.48-41.191c84.287-9.688,115.938,6.935,206.295,14.656
		c205.602,17.57,297.607-46.632,382.712,15.208c26.481,19.242,55.019,45.464,66.554,83.227
		c11.932,39.064-6.26,66.216,32.796,104.825c61.423,60.72,101.023,179.237,101.023,179.237s-319.866,44.341-535.098-129.155
		c-10.747-5.979-65.745-86.029-162.964-144.53c-41.184-24.783-71.201-35.44-103.153-38.382
		c-62.821-5.785-112.471,20.157-135.809,34.682L845.002,620.619z"/>
	<path fill="none" stroke="#03174F" stroke-width="18" stroke-linecap="round" stroke-linejoin="round" stroke-miterlimit="10" d="
		M807.084,653.021c0,0-80.648,17.61-90.582,124.829c-9.934,107.218-64.255,132.244-64.255,132.244s110.913-43.461,133.074-138.231
		s36.189-108.819,36.189-108.819L807.084,653.021z"/>
	<path fill="none" stroke="#03174F" stroke-width="18" stroke-linecap="round" stroke-linejoin="round" stroke-miterlimit="10" d="
		M852.113,666.277c0,0,82.477,3.42,110.776,107.312c28.299,103.893,86.126,119.162,86.126,119.162s-116.752-23.656-154.944-113.176
		S839.635,678.64,839.635,678.64L852.113,666.277z"/>
	<g>
		<g>
			<g>
				<path fill="#03174F" d="M541.375,551.777l5.208-34.055l10.557,10.206h0l-2.598,0.683l-2.716,0.74l-5.441,1.586
					c-3.627,1.072-7.207,2.294-10.763,3.518c-3.55,1.241-7.055,2.571-10.472,4.02c-3.418,1.444-6.791,2.929-10.013,4.59
					c-3.236,1.639-6.327,3.434-9.222,5.346c-2.917,1.888-5.569,3.968-7.901,6.141c-1.152,1.091-2.209,2.212-3.163,3.352
					c-0.919,1.149-1.749,2.308-2.428,3.478c-0.664,1.169-1.212,2.338-1.628,3.512c-0.38,1.179-0.635,2.364-0.783,3.574
					c-0.558,4.792,1.337,10.535,4.869,16.199c3.53,5.654,8.431,11.097,13.784,16.19c5.396,5.085,11.195,9.987,16.991,15.103
					c2.905,2.548,5.832,5.13,8.735,7.806c1.459,1.328,2.916,2.675,4.348,4.075c1.455,1.367,2.877,2.801,4.268,4.306l0.024,0.026
					c1.125,1.217,1.05,3.115-0.167,4.24c-0.767,0.709-1.823,0.936-2.767,0.706c-4.021-1.01-7.867-2.386-11.649-3.918
					c-3.767-1.563-7.471-3.28-11.063-5.231c-7.216-3.849-14.063-8.476-20.48-13.895c-6.409-5.425-12.63-11.41-17.849-18.951
					c-2.608-3.756-4.942-7.955-6.601-12.712c-0.865-2.348-1.465-4.896-1.898-7.493c-0.39-2.624-0.51-5.341-0.334-8.067
					c0.222-2.725,0.735-5.43,1.518-8.029c0.815-2.583,1.888-5.031,3.132-7.322c1.27-2.27,2.718-4.35,4.249-6.299
					c1.55-1.918,3.19-3.691,4.887-5.337c6.855-6.495,14.434-11.075,22.099-14.844c7.664-3.805,15.521-6.692,23.435-9.134
					c3.955-1.231,7.953-2.258,11.961-3.223c2.004-0.485,4.022-0.914,6.051-1.316l3.061-0.582c1.052-0.192,2.01-0.343,3.204-0.527
					l0,0c4.877-0.925,9.58,2.279,10.505,7.156c0.193,1.018,0.206,2.028,0.062,2.997l-0.011,0.054l-5.208,34.055
					c-0.752,4.913-5.344,8.287-10.257,7.536C543.998,561.283,540.624,556.691,541.375,551.777z"/>
			</g>
		</g>
		<path fill="none" stroke="#03174F" stroke-width="18" stroke-linecap="round" stroke-linejoin="round" stroke-miterlimit="10" d="
			M496.927,601.934c0,0-66.492,76.483,42.235,73.828c108.728-2.655,211.335-29.685,313.828,36.673l16.762-73.873
			c-74.001-29.352-136.45-42.019-181.45-48.055c-76.096-10.207-152.349-8.167-154.07-22.947c-0.603-5.177,8.157-10.554,16.04-14.421
			"/>
	</g>
	<path fill="none" stroke="#03174F" stroke-width="18" stroke-linecap="round" stroke-linejoin="round" stroke-miterlimit="10" d="
		M682.607,577.662"/>
	<g>
		<path fill="#FF1041" d="M817.404,661.887c0,0,13.344-13.623,30.618-11.174c17.275,2.449-11.46-63.823-52.031-20.737
			c-40.57,43.086-19.48,110.801,22.582,90.064C860.636,699.301,783.866,687.598,817.404,661.887z"/>
		<path fill="none" stroke="#03174F" stroke-width="18" stroke-linecap="round" stroke-linejoin="round" stroke-miterlimit="10" d="
			M817.404,661.887c0,0,13.344-13.623,30.618-11.174c17.275,2.449-11.46-63.823-52.031-20.737
			c-40.57,43.086-19.48,110.801,22.582,90.064C860.636,699.301,783.866,687.598,817.404,661.887z"/>
		<g>
			<path fill="#FF1041" d="M859.459,640.576c0,0-0.35-18.937-14.684-28.753c-14.334-9.817,52.496-39.006,52.409,19.789
				c-0.087,58.795-62.321,94.178-78.771,50.735C801.963,638.904,866.233,681.929,859.459,640.576z"/>
			
				<path fill="none" stroke="#03174F" stroke-width="18" stroke-linecap="round" stroke-linejoin="round" stroke-miterlimit="10" d="
				M859.459,640.576c0,0-0.35-18.937-14.684-28.753c-14.334-9.817,52.496-39.006,52.409,19.789
				c-0.087,58.795-62.321,94.178-78.771,50.735C801.963,638.904,866.233,681.929,859.459,640.576z"/>
		</g>
	</g>
	<g>
		<path fill="#F45690" d="M1143.712,678.345c12.339,5.819,24.154,12.721,35.774,19.903c2.91,1.792,5.827,3.58,8.663,5.484
			l8.566,5.641c5.618,3.889,11.296,7.719,16.796,11.783c22.157,16.065,43.329,33.522,63.526,52.054
			c2.516,2.326,5.082,4.603,7.558,6.971l7.403,7.134l7.38,7.165c2.442,2.407,4.797,4.896,7.201,7.342l7.178,7.369l3.586,3.69
			l3.358,3.391c4.568,4.43,9.457,8.602,14.651,12.462c10.416,7.688,21.67,14.498,33.46,20.446c5.861,3.03,11.868,5.842,17.92,8.564
			c6.09,2.657,12.214,5.255,18.448,7.637c12.407,4.895,25.059,9.292,37.859,13.307c12.776,4.095,25.712,7.77,38.715,11.261
			c26.019,6.954,52.379,12.874,78.882,18.284c26.511,5.383,53.189,10.154,79.966,14.554c13.386,2.225,26.806,4.285,40.24,6.347
			c6.718,1.029,13.445,2.008,20.18,2.954c6.73,1.012,13.471,1.915,20.222,2.853c-6.817,0.106-13.629-0.037-20.447-0.14
			c-6.813-0.172-13.623-0.423-20.435-0.7c-13.624-0.563-27.232-1.46-40.831-2.533c-27.195-2.183-54.332-5.313-81.363-9.398
			c-6.755-1.04-13.506-2.122-20.249-3.268c-6.739-1.167-13.47-2.396-20.191-3.701c-13.451-2.564-26.84-5.499-40.184-8.706
			c-13.339-3.229-26.598-6.862-39.785-10.831c-13.167-4.032-26.235-8.497-39.139-13.527c-12.878-5.086-25.617-10.68-37.991-17.206
			c-12.356-6.525-24.409-13.909-35.639-22.68c-5.605-4.398-10.962-9.198-16.013-14.368l-3.711-3.955l-3.395-3.74l-6.784-7.49
			c-2.273-2.487-4.499-5.02-6.811-7.47l-6.971-7.319l-6.948-7.35c-2.326-2.441-4.741-4.792-7.107-7.193
			c-18.928-19.218-38.671-37.67-59.187-55.299c-5.068-4.488-10.355-8.699-15.532-13.07l-7.909-6.372
			c-2.633-2.134-5.295-4.227-7.971-6.307c-2.667-2.093-5.338-4.186-8.063-6.201c-2.708-2.043-5.423-4.08-8.178-6.059
			C1154.963,685.994,1149.384,682.123,1143.712,678.345z"/>
	</g>
</g>
<g>
	<g>
		
			<rect x="204.137" y="347.796" transform="matrix(-0.0867 -0.9962 0.9962 -0.0867 -276.3784 819.0021)" fill="#FBC60F" width="66.195" height="376.789"/>
		
			<rect x="222.12" y="364.283" transform="matrix(-0.0867 -0.9962 0.9962 -0.0867 -291.2444 838.3463)" fill="#F8A01E" width="33.098" height="376.789"/>
		<g>
			<polyline fill="none" stroke="#DD8822" stroke-width="5" stroke-miterlimit="10" points="69.602,517.547 72.471,550.526 
				75.339,583.5 			"/>
			<polyline fill="none" stroke="#DD8822" stroke-width="5" stroke-miterlimit="10" points="93.179,515.496 96.048,548.475 
				98.917,581.449 			"/>
			<polyline fill="none" stroke="#DD8822" stroke-width="5" stroke-miterlimit="10" points="116.757,513.445 119.626,546.424 
				122.494,579.398 			"/>
			<polyline fill="none" stroke="#DD8822" stroke-width="5" stroke-miterlimit="10" points="140.335,511.394 143.204,544.373 
				146.072,577.347 			"/>
			<polyline fill="none" stroke="#DD8822" stroke-width="5" stroke-miterlimit="10" points="163.912,509.343 166.781,542.322 
				169.65,575.296 			"/>
			<polyline fill="none" stroke="#DD8822" stroke-width="5" stroke-miterlimit="10" points="187.212,507.316 190.08,540.295 
				192.949,573.269 			"/>
			<polyline fill="none" stroke="#DD8822" stroke-width="5" stroke-miterlimit="10" points="210.789,505.265 213.658,538.244 
				216.526,571.218 			"/>
			<polyline fill="none" stroke="#DD8822" stroke-width="5" stroke-miterlimit="10" points="234.367,503.214 237.236,536.193 
				240.104,569.167 			"/>
			<polyline fill="none" stroke="#DD8822" stroke-width="5" stroke-miterlimit="10" points="257.944,501.163 260.813,534.142 
				263.681,567.116 			"/>
			<polyline fill="none" stroke="#DD8822" stroke-width="5" stroke-miterlimit="10" points="281.522,499.112 284.391,532.091 
				287.259,565.065 			"/>
			<polyline fill="none" stroke="#DD8822" stroke-width="5" stroke-miterlimit="10" points="304.821,497.085 307.69,530.064 
				310.558,563.038 			"/>
			<polyline fill="none" stroke="#DD8822" stroke-width="5" stroke-miterlimit="10" points="328.399,495.034 331.267,528.013 
				334.136,560.987 			"/>
			<polyline fill="none" stroke="#DD8822" stroke-width="5" stroke-miterlimit="10" points="351.976,492.983 354.845,525.962 
				357.714,558.936 			"/>
			<polyline fill="none" stroke="#DD8822" stroke-width="5" stroke-miterlimit="10" points="375.554,490.932 378.423,523.911 
				381.291,556.885 			"/>
			<polyline fill="none" stroke="#DD8822" stroke-width="5" stroke-miterlimit="10" points="399.131,488.881 402,521.86 
				404.869,554.834 			"/>
		</g>
		
			<rect x="202.649" y="347.926" transform="matrix(-0.0867 -0.9962 0.9962 -0.0867 -278.1249 817.6595)" fill="none" stroke="#03174F" stroke-width="18" stroke-miterlimit="10" width="66.195" height="376.789"/>
	</g>
	<g>
		
			<rect x="210.416" y="413.701" transform="matrix(-0.0867 -0.9962 0.9962 -0.0867 -335.2062 896.8784)" fill="#FBC60F" width="66.206" height="376.789"/>
		
			<rect x="228.405" y="430.193" transform="matrix(-0.0867 -0.9962 0.9962 -0.0867 -350.0773 916.2285)" fill="#F8A01E" width="33.098" height="376.789"/>
		<g>
			<polyline fill="none" stroke="#DD8822" stroke-width="5" stroke-miterlimit="10" points="75.886,583.449 78.755,616.428 
				81.623,649.402 			"/>
			<polyline fill="none" stroke="#DD8822" stroke-width="5" stroke-miterlimit="10" points="99.464,581.398 102.333,614.377 
				105.201,647.351 			"/>
			<polyline fill="none" stroke="#DD8822" stroke-width="5" stroke-miterlimit="10" points="123.041,579.347 125.91,612.326 
				128.779,645.3 			"/>
			<polyline fill="none" stroke="#DD8822" stroke-width="5" stroke-miterlimit="10" points="146.619,577.296 149.488,610.275 
				152.356,643.249 			"/>
			<polyline fill="none" stroke="#DD8822" stroke-width="5" stroke-miterlimit="10" points="170.196,575.245 173.065,608.224 
				175.934,641.198 			"/>
			<polyline fill="none" stroke="#DD8822" stroke-width="5" stroke-miterlimit="10" points="193.496,573.218 196.365,606.197 
				199.233,639.171 			"/>
			<polyline fill="none" stroke="#DD8822" stroke-width="5" stroke-miterlimit="10" points="217.073,571.167 219.942,604.146 
				222.811,637.12 			"/>
			<polyline fill="none" stroke="#DD8822" stroke-width="5" stroke-miterlimit="10" points="240.651,569.116 243.52,602.095 
				246.388,635.069 			"/>
			<polyline fill="none" stroke="#DD8822" stroke-width="5" stroke-miterlimit="10" points="264.228,567.065 267.097,600.044 
				269.966,633.018 			"/>
			<polyline fill="none" stroke="#DD8822" stroke-width="5" stroke-miterlimit="10" points="287.806,565.014 290.675,597.993 
				293.543,630.967 			"/>
			<polyline fill="none" stroke="#DD8822" stroke-width="5" stroke-miterlimit="10" points="311.105,562.987 313.974,595.966 
				316.843,628.94 			"/>
			<polyline fill="none" stroke="#DD8822" stroke-width="5" stroke-miterlimit="10" points="334.683,560.936 337.552,593.915 
				340.42,626.889 			"/>
			<polyline fill="none" stroke="#DD8822" stroke-width="5" stroke-miterlimit="10" points="358.26,558.885 361.129,591.864 
				363.998,624.838 			"/>
			<polyline fill="none" stroke="#DD8822" stroke-width="5" stroke-miterlimit="10" points="381.838,556.834 384.707,589.813 
				387.575,622.787 			"/>
			<polyline fill="none" stroke="#DD8822" stroke-width="5" stroke-miterlimit="10" points="405.416,554.783 408.284,587.762 
				411.153,620.736 			"/>
		</g>
		
			<rect x="53.639" y="569.121" transform="matrix(0.9962 -0.0867 0.0867 0.9962 -51.2808 23.2417)" fill="none" stroke="#03174F" stroke-width="18" stroke-miterlimit="10" width="376.79" height="66.201"/>
	</g>
</g>
<g>
	<path fill="#FFFFFF" d="M744.317,457.236c0,0,69.138,77.658,176.623,31.892C920.94,489.128,814.522,654.437,744.317,457.236z"/>
	<g>
		<g>
			<path fill="#03174F" d="M677.295,236.583c1.89-8.696,6.113-17.002,11.843-24.25c5.751-7.25,13.101-13.378,21.365-17.996
				c1.04-0.563,2.066-1.17,3.128-1.696l3.237-1.481l1.631-0.728c0.544-0.243,1.091-0.48,1.656-0.662l3.371-1.18
				c2.238-0.849,4.556-1.41,6.877-1.983c2.309-0.651,4.684-0.928,7.043-1.355c9.472-1.413,19.216-1.119,28.6,0.794
				c18.818,3.753,36.081,14.005,48.31,28.23c6.11,7.113,11.004,15.198,14.237,23.809l1.106,3.264
				c0.341,1.094,0.787,2.135,1.003,3.272c0.496,2.243,1.103,4.42,1.454,6.658c0.295,2.256,0.589,4.485,0.768,6.709
				c0.034,2.26,0.063,4.489-0.011,6.694c-0.949-2.039-1.794-4.056-2.635-6.041c-0.941-1.96-1.966-3.864-2.88-5.769
				c-1.021-1.87-2.143-3.678-3.18-5.487c-0.496-0.915-1.143-1.759-1.715-2.629l-1.751-2.576
				c-4.806-6.749-10.332-12.757-16.44-17.932c-12.184-10.378-26.631-17.466-41.819-20.559c-15.185-3.106-31.163-2.067-46.015,3.424
				c-7.433,2.719-14.561,6.561-21.156,11.481c-0.417,0.303-0.858,0.585-1.259,0.907l-1.183,0.994
				c-0.793,0.663-1.581,1.338-2.401,1.995c-0.846,0.636-1.547,1.4-2.315,2.119l-2.307,2.184c-0.794,0.721-1.427,1.561-2.179,2.33
				l-2.202,2.378C680.096,233.155,678.767,234.881,677.295,236.583z"/>
		</g>
	</g>
	<path fill="#03174F" d="M797.365,339.299c-5.625,41.448-33.911,70.763-63.179,65.478c-29.268-5.285-48.435-43.169-42.81-84.616
		c5.625-41.448,33.911-70.763,63.179-65.479C783.823,259.968,802.99,297.852,797.365,339.299z"/>
	<path fill="#FFFFFF" d="M783.193,306.671c0.619,13.844-6.032,24.94-14.855,24.784c-8.823-0.156-16.478-11.504-17.097-25.348
		c-0.619-13.844,6.032-24.94,14.855-24.784C774.919,281.479,782.574,292.827,783.193,306.671z"/>
	<path fill="#9DA1AA" d="M732.585,360.48c-1.4,10.32-7.746,17.746-14.172,16.586c-6.427-1.16-10.501-10.468-9.1-20.788
		c1.401-10.32,7.746-17.746,14.172-16.586C729.911,340.852,733.986,350.159,732.585,360.48z"/>
	<g>
		<g>
			<path fill="#03174F" d="M1038.164,301.743c-0.939-2.042-1.762-4.065-2.606-6.049l-2.859-5.779
				c-1.104-1.844-2.08-3.705-3.163-5.498c-1.193-1.746-2.25-3.529-3.453-5.216c-4.791-6.764-10.308-12.785-16.412-17.965
				c-12.171-10.394-26.63-17.462-41.836-20.478c-15.186-3.052-31.182-2.027-46.057,3.456c-7.442,2.717-14.577,6.553-21.176,11.467
				l-4.846,3.89l-4.626,4.297l-4.387,4.702c-1.354,1.671-2.722,3.374-4.197,5.073c1.894-8.698,6.114-17.015,11.852-24.269
				c5.758-7.256,13.123-13.381,21.397-17.987c8.273-4.627,17.489-7.659,26.953-9.065c9.471-1.41,19.213-1.109,28.602,0.786
				c18.827,3.702,36.127,13.958,48.341,28.201c6.102,7.124,10.981,15.218,14.201,23.832
				C1037.084,283.749,1038.732,292.859,1038.164,301.743z"/>
		</g>
	</g>
	<path fill="#03174F" d="M896.625,357.222c-5.625,41.448,13.542,79.332,42.81,84.617c29.268,5.285,57.554-24.031,63.179-65.479
		c5.625-41.448-13.542-79.332-42.81-84.616C930.536,286.459,902.25,315.775,896.625,357.222z"/>
	<path fill="#FFFFFF" d="M918.764,331.15c-4.257,12.963-0.864,25.873,7.579,28.835c8.443,2.962,18.737-5.145,22.994-18.109
		c4.257-12.963,0.864-25.873-7.579-28.835C933.315,310.079,923.021,318.187,918.764,331.15z"/>
	<path fill="#9DA1AA" d="M952.696,400.224c-1.401,10.32,2.674,19.628,9.1,20.788c6.427,1.16,12.772-6.265,14.172-16.586
		c1.401-10.32-2.674-19.628-9.1-20.788C960.441,382.478,954.096,389.903,952.696,400.224z"/>
	<path fill="none" stroke="#03174F" stroke-width="18" stroke-linecap="round" stroke-linejoin="round" stroke-miterlimit="10" d="
		M744.317,457.236c0,0,69.138,77.658,176.623,31.892C920.94,489.128,814.522,654.437,744.317,457.236z"/>
</g>
<path fill="#8DFCC0" d="M443.861,332.227c14.496-33.77,46.801-96.442,112.8-151.11c79.865-66.154,163.877-83.155,200.769-88.37
	c-42.333,12.883-102.993,36.738-166.102,82.279C515.609,229.666,469.406,291.683,443.861,332.227z"/>
</svg>
